<svg width="200" height="84" viewBox="0 0 200 84" fill="none" xmlns="http://www.w3.org/2000/svg">
<path d="M44.6221 23.4V35.7038H43.6518C43.3371 33.3428 42.7688 31.4626 41.9471 30.0635C41.1429 28.6643 39.9889 27.5538 38.4854 26.7318C36.9818 25.9098 35.4257 25.4988 33.8172 25.4988C31.9989 25.4988 30.4953 26.0584 29.3064 27.1777C28.1176 28.2796 27.5231 29.5388 27.5231 30.9555C27.5231 32.0398 27.899 33.028 28.6508 33.9199C29.7348 35.2316 32.3136 36.9806 36.3873 39.1667C39.7092 40.9507 41.9733 42.3236 43.1797 43.2855C44.4036 44.2299 45.3389 45.3492 45.9858 46.6435C46.6502 47.9377 46.9824 49.2931 46.9824 50.7098C46.9824 53.4031 45.9334 55.7292 43.8353 57.688C41.7548 59.6294 39.0711 60.6 35.7841 60.6C34.7526 60.6 33.7823 60.5213 32.8731 60.3639C32.3311 60.2765 31.2034 59.9617 29.49 59.4195C27.7941 58.8598 26.7189 58.58 26.2643 58.58C25.8272 58.58 25.4775 58.7112 25.2153 58.9735C24.9705 59.2358 24.7869 59.778 24.6645 60.6H23.6942V48.4012H24.6645C25.1191 50.9546 25.731 52.8697 26.5003 54.1464C27.2696 55.4057 28.441 56.455 30.0145 57.2945C31.6055 58.134 33.3452 58.5538 35.2334 58.5538C37.4189 58.5538 39.141 57.9766 40.3998 56.8223C41.6761 55.668 42.3143 54.3038 42.3143 52.7298C42.3143 51.8553 42.0695 50.9721 41.58 50.0801C41.1079 49.1882 40.3648 48.3574 39.3508 47.5879C38.6689 47.0632 36.8069 45.9526 33.7648 44.2562C30.7226 42.5422 28.5547 41.178 27.2609 40.1636C25.9846 39.1492 25.0142 38.0299 24.3498 36.8057C23.6855 35.5814 23.3533 34.2347 23.3533 32.7656C23.3533 30.2122 24.3324 28.0172 26.2905 26.1808C28.2487 24.327 30.7401 23.4 33.7648 23.4C35.653 23.4 37.6549 23.8635 39.7704 24.7904C40.7495 25.2277 41.4401 25.4463 41.8422 25.4463C42.2968 25.4463 42.6639 25.3151 42.9437 25.0528C43.2409 24.7729 43.4769 24.222 43.6518 23.4H44.6221Z" fill="#ED1C24"/>
<path d="M60.9081 43.1281V53.4906C60.9081 55.7292 61.1529 57.1196 61.6424 57.6618C62.3068 58.4313 63.3121 58.8161 64.6584 58.8161H66.0221V59.7868H50.7851V58.8161H52.1226C53.6262 58.8161 54.7014 58.3264 55.3483 57.347C55.698 56.8048 55.8728 55.5193 55.8728 53.4906V30.5095C55.8728 28.2708 55.6368 26.8804 55.1647 26.3382C54.4829 25.5687 53.4688 25.1839 52.1226 25.1839H50.7851V24.2133H63.8191C67.0012 24.2133 69.5101 24.5456 71.3458 25.2102C73.1816 25.8573 74.7289 26.9591 75.9877 28.5157C77.2466 30.0722 77.876 31.9174 77.876 34.0511C77.876 36.9543 76.9144 39.3154 74.9912 41.1343C73.0855 42.9532 70.3842 43.8626 66.8875 43.8626C66.0308 43.8626 65.1042 43.8014 64.1076 43.679C63.111 43.5566 62.0445 43.3729 60.9081 43.1281ZM60.9081 41.6327C61.8347 41.8076 62.6565 41.9388 63.3733 42.0263C64.0901 42.1137 64.7021 42.1574 65.2091 42.1574C67.0274 42.1574 68.5922 41.4579 69.9034 40.0587C71.2322 38.6421 71.8966 36.8144 71.8966 34.5758C71.8966 33.0367 71.5819 31.6113 70.9525 30.2996C70.323 28.9704 69.4314 27.9823 68.2775 27.3351C67.1235 26.6705 65.8123 26.3382 64.3436 26.3382C63.452 26.3382 62.3068 26.5044 60.9081 26.8367V41.6327Z" fill="#ED1C24"/>
<path d="M98.4273 47.8765H84.659L82.2462 53.4906C81.6518 54.8722 81.3546 55.9041 81.3546 56.5862C81.3546 57.1284 81.6081 57.6093 82.1151 58.0291C82.6396 58.4313 83.7586 58.6937 85.472 58.8161V59.7868H74.2737V58.8161C75.7598 58.5538 76.7214 58.2127 77.1585 57.793C78.0502 56.9535 79.038 55.2483 80.122 52.6773L92.6315 23.4H93.5494L105.928 52.9921C106.924 55.3707 107.825 56.9185 108.629 57.6356C109.451 58.3351 110.587 58.7287 112.038 58.8161V59.7868H98.0077V58.8161C99.4239 58.7461 100.377 58.51 100.866 58.1078C101.373 57.7055 101.627 57.2158 101.627 56.6387C101.627 55.8691 101.277 54.6536 100.578 52.9921L98.4273 47.8765ZM97.693 45.9351L91.6612 31.5588L85.472 45.9351H97.693Z" fill="#ED1C24"/>
<path d="M141.583 23.4L142.396 35.494H141.583C140.499 31.8736 138.952 29.2677 136.941 27.6762C134.931 26.0847 132.518 25.2889 129.703 25.2889C127.343 25.2889 125.21 25.8923 123.304 27.099C121.398 28.2883 119.895 30.1947 118.793 32.8181C117.709 35.4415 117.167 38.7033 117.167 42.6034C117.167 45.8215 117.683 48.611 118.715 50.9721C119.746 53.3332 121.294 55.1433 123.357 56.4026C125.437 57.6618 127.806 58.2914 130.464 58.2914C132.772 58.2914 134.808 57.8017 136.574 56.8223C138.34 55.8254 140.281 53.8579 142.396 50.9196L143.209 51.4443C141.426 54.6099 139.345 56.9272 136.968 58.3964C134.59 59.8655 131.766 60.6 128.497 60.6C122.605 60.6 118.042 58.4138 114.807 54.0415C112.394 50.7885 111.188 46.9583 111.188 42.5509C111.188 39.0006 111.983 35.7388 113.574 32.7656C115.166 29.7924 117.351 27.4925 120.131 25.866C122.928 24.222 125.979 23.4 129.284 23.4C131.854 23.4 134.389 24.0296 136.889 25.2889C137.623 25.6736 138.148 25.866 138.462 25.866C138.935 25.866 139.345 25.6999 139.695 25.3676C140.15 24.8954 140.473 24.2395 140.665 23.4H141.583Z" fill="#ED1C24"/>
<path d="M156.296 26.1546V40.2161H164.111C166.139 40.2161 167.494 39.91 168.176 39.2979C169.085 38.4934 169.592 37.0768 169.697 35.048H170.667V47.4305H169.697C169.452 45.699 169.207 44.5885 168.963 44.0988C168.648 43.4866 168.132 43.0057 167.415 42.6559C166.699 42.3061 165.597 42.1312 164.111 42.1312H156.296V53.8579C156.296 55.4319 156.366 56.3938 156.506 56.7436C156.645 57.0759 156.89 57.347 157.24 57.5569C157.59 57.7492 158.254 57.8454 159.233 57.8454H165.265C167.275 57.8454 168.735 57.7055 169.645 57.4257C170.554 57.1459 171.428 56.5949 172.267 55.7729C173.351 54.6886 174.461 53.0533 175.598 50.8672H176.647L173.578 59.7868H146.173V58.8161H147.432C148.271 58.8161 149.066 58.615 149.818 58.2127C150.378 57.9329 150.753 57.5131 150.946 56.9535C151.156 56.3938 151.26 55.2483 151.26 53.5168V30.4045C151.26 28.1484 151.033 26.758 150.579 26.2333C149.949 25.5337 148.9 25.1839 147.432 25.1839H146.173V24.2133H173.578L173.972 32.0048H172.949C172.582 30.1335 172.171 28.848 171.716 28.1484C171.279 27.4488 170.624 26.9154 169.749 26.5481C169.05 26.2858 167.817 26.1546 166.052 26.1546H156.296Z" fill="#ED1C24"/>
</svg>
